<svg xmlns="http://www.w3.org/2000/svg">
    <symbol viewBox="0 0 68 68" id="logo">
      <svg
        xmlns="http://www.w3.org/2000/svg"
        width="68"
        height="68"
        viewBox="0 0 68 68"
        fill="transparent"
      >
        <path
          d="M34 66C51.6731 66 66 51.6731 66 34C66 16.3269 51.6731 2 34 2C16.3269 2 2 16.3269 2 34C2 51.6731 16.3269 66 34 66Z"
          stroke="#4C4C4C"
          stroke-width="2.5"
        />
        <path
          d="M18.9773 35.3264H17.3555"
          stroke="#4C4C4C"
          stroke-width="2.5"
          stroke-miterlimit="10"
          stroke-linecap="round"
          stroke-linejoin="round"
        />
        <path
          d="M22.3003 27.822H13V41.7099"
          stroke="#4C4C4C"
          stroke-width="2.5"
          stroke-miterlimit="10"
          stroke-linecap="round"
          stroke-linejoin="round"
        />
        <path
          d="M51.1641 32.3342V41.7096"
          stroke="#4C4C4C"
          stroke-width="2.5"
          stroke-miterlimit="10"
          stroke-linecap="round"
          stroke-linejoin="round"
        />
        <path
          d="M55.9995 27.822H46.6992"
          stroke="#4C4C4C"
          stroke-width="2.5"
          stroke-miterlimit="10"
          stroke-linecap="round"
          stroke-linejoin="round"
        />
        <path
          d="M31.5273 41.9594L26.1514 27"
          stroke="#4C4C4C"
          stroke-width="2.5"
          stroke-miterlimit="10"
          stroke-linecap="round"
          stroke-linejoin="round"
        />
        <path
          d="M43.0503 27L37.6743 41.9594L34.5107 33.5358"
          stroke="#4C4C4C"
          stroke-width="2.5"
          stroke-miterlimit="10"
          stroke-linecap="round"
          stroke-linejoin="round"
        />
      </svg>
    </symbol>
    <symbol viewBox="0 0 14 13" id="arrow-left-left">
       <svg
        xmlns="http://www.w3.org/2000/svg"
        width="14"
        height="13"
         viewBox="0 0 14 13"
      >
        <path
          d="M2.71401 6.49988L7.80231 1.62545C8.16797 1.275 8.16797 0.706895 7.80231 0.356587C7.43665 0.00613754 6.84368 0.00613754 6.47787 0.356587L0.727266 5.86567C0.544436 6.04091 0.453125 6.27034 0.453125 6.49988C0.453125 6.72951 0.544614 6.9591 0.727266 7.13426L6.47787 12.6433C6.84368 12.9939 7.43668 12.9939 7.80231 12.6433C8.16797 12.293 8.16797 11.7248 7.80231 11.3745L2.71401 6.49988ZM13.632 11.3745C13.9977 11.7248 13.9977 12.293 13.632 12.6433C13.2663 12.9939 12.6735 12.9939 12.3075 12.6433L6.55693 7.13428C6.3741 6.95913 6.28293 6.72953 6.28293 6.49991C6.28293 6.27037 6.37427 6.04077 6.55693 5.8657L12.3075 0.356587C12.6735 0.00613754 13.2663 0.00613754 13.632 0.356587C13.9977 0.706895 13.9977 1.27498 13.632 1.62545L8.54358 6.49988L13.632 11.3745Z"
        />
      </svg>
    </symbol> 
    <symbol viewBox="0 0 22 22" id="theme">
      <svg
          xmlns="http://www.w3.org/2000/svg"
          width="22"
          height="22"
          viewBox="0 0 22 22"
           >
          <path
            d="M11 6C8.24 6 6 8.24 6 11C6 13.76 8.24 16 11 16C13.76 16 16 13.76 16 11C16 8.24 13.76 6 11 6ZM1 12H3C3.55 12 4 11.55 4 11C4 10.45 3.55 10 3 10H1C0.45 10 0 10.45 0 11C0 11.55 0.45 12 1 12ZM19 12H21C21.55 12 22 11.55 22 11C22 10.45 21.55 10 21 10H19C18.45 10 18 10.45 18 11C18 11.55 18.45 12 19 12ZM10 1V3C10 3.55 10.45 4 11 4C11.55 4 12 3.55 12 3V1C12 0.45 11.55 0 11 0C10.45 0 10 0.45 10 1ZM10 19V21C10 21.55 10.45 22 11 22C11.55 22 12 21.55 12 21V19C12 18.45 11.55 18 11 18C10.45 18 10 18.45 10 19ZM4.99 3.58C4.6 3.19 3.96 3.19 3.58 3.58C3.19 3.97 3.19 4.61 3.58 4.99L4.64 6.05C5.03 6.44 5.67 6.44 6.05 6.05C6.43 5.66 6.44 5.02 6.05 4.64L4.99 3.58ZM17.36 15.95C16.97 15.56 16.33 15.56 15.95 15.95C15.56 16.34 15.56 16.98 15.95 17.36L17.01 18.42C17.4 18.81 18.04 18.81 18.42 18.42C18.81 18.03 18.81 17.39 18.42 17.01L17.36 15.95ZM18.42 4.99C18.81 4.6 18.81 3.96 18.42 3.58C18.03 3.19 17.39 3.19 17.01 3.58L15.95 4.64C15.56 5.03 15.56 5.67 15.95 6.05C16.34 6.43 16.98 6.44 17.36 6.05L18.42 4.99ZM6.05 17.36C6.44 16.97 6.44 16.33 6.05 15.95C5.66 15.56 5.02 15.56 4.64 15.95L3.58 17.01C3.19 17.4 3.19 18.04 3.58 18.42C3.97 18.8 4.61 18.81 4.99 18.42L6.05 17.36Z"
          />
        </svg>
    </symbol>
    <symbol viewBox="0 0 14 13" id="arrow-left">
       <svg
        xmlns="http://www.w3.org/2000/svg"
        width="9"
        height="13"
        viewBox="0 0 9 13"
      >
        <path
          d="M0.932837 7.13428L6.73159 12.6433C7.10046 12.9939 7.69852 12.9939 8.06721 12.6433C8.43593 12.293 8.43593 11.7248 8.06721 11.3745L2.93621 6.49991L8.06706 1.62545C8.43578 1.275 8.43578 0.706895 8.06706 0.356587C7.69834 0.00613754 7.10031 0.00613754 6.73144 0.356587L0.932687 5.86567C0.748326 6.04091 0.65625 6.27034 0.65625 6.49988C0.65625 6.72953 0.748506 6.95913 0.932837 7.13428Z"
        
        />
      </svg>
    </symbol>

     <symbol viewBox="0 0 14 13" id="arrow-right">
       <svg
        xmlns="http://www.w3.org/2000/svg"
        width="9"
        height="13"
        viewBox="0 0 9 13"
      >
        <path
          d="M8.06716 7.13428L2.26841 12.6433C1.89954 12.9939 1.30148 12.9939 0.932791 12.6433C0.56407 12.293 0.56407 11.7248 0.932791 11.3745L6.06379 6.49991L0.93294 1.62545C0.564219 1.275 0.564219 0.706895 0.93294 0.356587C1.30166 0.00613754 1.89969 0.00613754 2.26856 0.356587L8.06731 5.86567C8.25167 6.04091 8.34375 6.27034 8.34375 6.49988C8.34375 6.72953 8.25149 6.95913 8.06716 7.13428Z"
        />
      </svg>
    </symbol>

     <symbol viewBox="0 0 14 13" id="arrow-right-right">
      <svg
        xmlns="http://www.w3.org/2000/svg"
        width="14"
        height="13"
        viewBox="0 0 14 13"
      >
        <path
          d="M11.286 6.49988L6.19769 1.62545C5.83203 1.275 5.83203 0.706895 6.19769 0.356587C6.56335 0.00613754 7.15632 0.00613754 7.52213 0.356587L13.2727 5.86567C13.4556 6.04091 13.5469 6.27034 13.5469 6.49988C13.5469 6.72951 13.4554 6.9591 13.2727 7.13426L7.52213 12.6433C7.15632 12.9939 6.56332 12.9939 6.19769 12.6433C5.83203 12.293 5.83203 11.7248 6.19769 11.3745L11.286 6.49988ZM0.367995 11.3745C0.00233503 11.7248 0.00233503 12.293 0.367995 12.6433C0.733655 12.9939 1.32645 12.9939 1.69247 12.6433L7.44307 7.13428C7.6259 6.95913 7.71707 6.72953 7.71707 6.49991C7.71707 6.27037 7.62573 6.04077 7.44307 5.8657L1.69247 0.356587C1.32648 0.00613754 0.733655 0.00613754 0.367995 0.356587C0.00233503 0.706895 0.00233503 1.27498 0.367995 1.62545L5.45642 6.49988L0.367995 11.3745Z"
        />
      </svg>
    </symbol>
    <symbol id="close">
      <svg xmlns="http://www.w3.org/2000/svg" fill="none">
       <path fill-rule="evenodd" clip-rule="evenodd" d="M1.36474 0.218926C1.07355 -0.0756609 0.601435 -0.0756609 0.310246 0.218926C0.0190565 0.513513 0.0190565 0.991134 0.310246 1.28572L2.25004 3.24815C2.63511 3.63771 2.63511 4.26457 2.25004 4.65413L0.216439 6.71146C-0.0747505 7.00604 -0.0747504 7.48366 0.216439 7.77825C0.507628 8.07284 0.97974 8.07284 1.27093 7.77825L3.28821 5.73743C3.67966 5.34142 4.31917 5.34142 4.71061 5.73743L6.72779 7.77815C7.01898 8.07274 7.49109 8.07274 7.78228 7.77815C8.07347 7.48356 8.07347 7.00594 7.78228 6.71136L5.74879 4.65413C5.36371 4.26457 5.36372 3.63771 5.74879 3.24814L7.68848 1.28582C7.97966 0.991235 7.97967 0.513615 7.68848 0.219028C7.39729 -0.0755597 6.92517 -0.0755594 6.63399 0.219028L4.71061 2.16485C4.31917 2.56086 3.67966 2.56086 3.28821 2.16485L1.36474 0.218926Z" fill="black" fill-opacity="0.3"/>
      </svg>
    </symbol>
</svg>